<?xml version="1.0" standalone="no"?>
<!DOCTYPE svg PUBLIC "-//W3C//DTD SVG 20010904//EN"
 "http://www.w3.org/TR/2001/REC-SVG-20010904/DTD/svg10.dtd">
<svg version="1.0" xmlns="http://www.w3.org/2000/svg"
 width="1000.000000pt" height="1000.000000pt" viewBox="0 0 1000.000000 1000.000000"
 preserveAspectRatio="xMidYMid meet">
<metadata>
Created by potrace 1.15, written by Peter Selinger 2001-2017
</metadata>
<g transform="translate(0.000000,1000.000000) scale(0.100000,-0.100000)"
fill="#000000" stroke="none">
<path d="M80 4960 l0 -4960 4960 0 4960 0 0 4960 0 4960 -4960 0 -4960 0 0
-4960z m7190 930 l0 -2530 -2190 0 -2190 0 0 2530 0 2530 2190 0 2190 0 0
-2530z m-102 -3266 c44 -50 11 -124 -56 -124 -87 0 -116 112 -38 146 38 16 64
10 94 -22z m-3090 7 c11 -6 13 -42 10 -167 l-3 -159 51 52 c73 74 148 91 231
54 30 -14 48 -31 64 -63 21 -39 23 -62 28 -243 l6 -200 33 -10 c21 -6 32 -15
32 -27 0 -17 -12 -18 -150 -18 -138 0 -150 1 -150 18 0 12 11 21 33 27 l32 10
3 204 c2 170 0 208 -13 227 -31 48 -117 21 -169 -54 -25 -37 -26 -41 -26 -199
0 -172 6 -193 51 -193 12 0 19 -7 19 -20 0 -19 -7 -20 -145 -20 -133 0 -145 2
-145 18 0 12 11 21 33 27 l32 10 3 285 c1 157 0 295 -3 307 -3 14 -16 24 -36
28 -46 10 -32 34 36 59 33 12 74 30 90 39 35 19 36 19 53 8z m1682 -334 c5
-364 4 -356 58 -357 18 0 23 -5 20 -21 -2 -16 -17 -26 -58 -39 -30 -10 -72
-25 -93 -34 -54 -24 -77 -14 -77 32 0 36 0 36 -16 14 -37 -53 -140 -71 -219
-38 -55 23 -109 79 -137 140 -31 70 -32 208 0 278 39 88 138 158 224 158 37 0
96 -25 125 -52 l23 -21 0 74 c0 80 -9 99 -47 99 -16 0 -23 6 -23 19 0 13 13
23 48 34 26 9 67 25 92 36 79 37 74 57 80 -322z m-3160 241 c0 -12 -11 -19
-35 -24 -19 -3 -39 -12 -45 -19 -7 -8 -9 -112 -8 -306 l3 -294 75 -3 c101 -3
135 14 175 90 22 43 35 58 52 58 20 0 21 -2 8 -42 -7 -24 -16 -67 -20 -95 l-7
-53 -265 0 c-244 0 -264 1 -261 17 2 10 16 20 34 24 17 3 36 9 42 13 9 5 12
87 12 295 0 314 2 305 -58 317 -20 4 -32 13 -32 23 0 14 19 16 165 16 149 0
165 -2 165 -17z m1000 2 c114 -30 163 -85 163 -181 0 -86 -30 -127 -135 -178
l-57 -28 56 -84 c69 -104 117 -156 164 -178 33 -15 35 -19 23 -35 -11 -16 -22
-18 -67 -13 -99 10 -153 50 -257 191 -89 119 -100 117 -100 -19 0 -93 2 -105
19 -115 11 -5 29 -10 40 -10 14 0 21 -6 21 -20 0 -19 -7 -20 -160 -20 -153 0
-160 1 -160 20 0 15 7 20 29 20 16 0 34 6 40 14 8 9 11 97 9 302 l-3 289 -32
14 c-18 8 -33 22 -33 30 0 14 24 16 198 15 118 -1 215 -7 242 -14z m1385 -143
c63 -32 98 -68 127 -132 32 -69 32 -189 0 -260 -81 -180 -304 -224 -444 -88
-110 107 -111 320 -3 428 85 86 214 106 320 52z m1287 12 c54 -27 92 -65 114
-113 29 -63 31 -125 5 -157 -19 -23 -25 -24 -180 -27 -128 -3 -161 -7 -161
-17 0 -36 24 -123 42 -153 51 -83 178 -82 234 3 16 25 54 35 54 14 0 -21 -32
-65 -64 -87 -59 -40 -166 -47 -251 -16 -50 18 -102 65 -130 116 -38 70 -47
196 -20 279 24 70 95 142 161 163 54 18 158 15 196 -5z m473 6 c47 -17 75 -19
75 -5 0 6 11 10 24 10 23 0 25 -4 31 -75 4 -42 5 -79 1 -82 -11 -11 -45 12
-68 47 -30 44 -83 80 -118 80 -41 0 -80 -35 -80 -71 0 -50 16 -66 121 -120
114 -59 163 -102 178 -156 29 -103 -70 -213 -191 -213 -16 0 -56 10 -90 21
-48 17 -65 19 -80 10 -42 -26 -58 1 -58 102 0 32 3 37 24 37 17 0 27 -9 36
-31 16 -38 80 -86 126 -95 60 -11 114 28 114 81 0 28 -52 74 -131 115 -103 54
-156 100 -169 151 -37 138 106 247 255 194z m446 -236 c-4 -241 -3 -247 18
-268 11 -11 30 -21 41 -21 13 0 20 -7 20 -20 0 -19 -7 -20 -150 -20 -138 0
-150 1 -150 18 0 12 11 21 33 27 l32 10 3 185 c1 102 0 195 -3 207 -3 14 -16
24 -35 28 -47 10 -40 40 13 54 24 6 64 19 88 30 24 11 55 19 69 18 l25 -2 -4
-246z m556 228 c63 -33 68 -51 71 -256 2 -109 8 -191 14 -198 6 -7 21 -13 34
-13 18 0 24 -5 24 -22 0 -19 -10 -26 -53 -40 -28 -9 -74 -25 -100 -35 -46 -17
-49 -17 -61 0 -9 11 -12 35 -9 65 l5 47 -26 -42 c-91 -146 -338 -86 -323 79 8
91 92 155 257 197 l75 19 3 67 c4 91 -14 120 -69 112 -53 -7 -66 -20 -85 -83
-8 -30 -22 -61 -30 -69 -18 -18 -85 -20 -102 -3 -17 17 -15 79 3 105 19 27 75
62 128 79 57 19 202 13 244 -9z"/>
<path d="M3730 7473 l0 -102 58 -6 c190 -20 292 -55 323 -115 18 -33 19 -85
19 -1365 0 -1317 0 -1330 -20 -1363 -30 -50 -107 -80 -250 -100 l-120 -17 0
-100 0 -100 1259 0 1259 0 7 100 c16 239 59 479 122 685 56 180 65 160 -71
160 l-116 0 -115 -235 c-99 -202 -123 -243 -175 -298 -69 -74 -145 -118 -257
-149 -70 -19 -109 -22 -395 -26 -310 -4 -317 -3 -337 17 l-21 21 0 1366 c0
1234 2 1369 16 1400 29 61 105 91 288 114 l96 12 0 102 0 101 -785 0 -785 0 0
-102z"/>
<path d="M5422 2358 c-29 -32 -39 -64 -47 -145 -13 -125 21 -260 77 -313 29
-26 78 -26 107 1 43 41 51 78 51 248 l0 159 -40 36 c-33 30 -48 36 -83 36 -32
0 -49 -6 -65 -22z"/>
<path d="M3397 2513 c-4 -3 -7 -83 -7 -176 l0 -170 45 6 c98 14 169 74 181
153 13 90 -27 162 -102 183 -44 12 -107 14 -117 4z"/>
<path d="M4830 2382 c-33 -10 -60 -47 -71 -97 -13 -61 -7 -239 11 -298 17 -58
65 -107 104 -107 68 0 96 67 96 226 0 107 -18 189 -51 236 -20 28 -64 48 -89
40z"/>
<path d="M6131 2374 c-38 -16 -65 -71 -76 -151 l-7 -53 110 0 111 0 -6 58
c-12 122 -60 176 -132 146z"/>
<path d="M7630 2160 c-42 -11 -83 -37 -114 -69 -40 -42 -48 -123 -16 -163 32
-41 79 -39 118 7 36 40 44 75 40 166 -3 65 -3 65 -28 59z"/>
</g>
</svg>
