<?xml version="1.0" standalone="no"?>
<!DOCTYPE svg PUBLIC "-//W3C//DTD SVG 20010904//EN"
 "http://www.w3.org/TR/2001/REC-SVG-20010904/DTD/svg10.dtd">
<svg version="1.0" xmlns="http://www.w3.org/2000/svg"
 width="30.000000pt" height="30.000000pt" viewBox="0 0 900.000000 900.000000"
 preserveAspectRatio="xMidYMid meet">

<g transform="translate(0.000000,1000.000000) scale(0.100000,-0.100000)"
fill="#000000" stroke="none">
<path d="M0 5000 l0 -5000 5000 0 5000 0 0 5000 0 5000 -5000 0 -5000 0 0
-5000z m7270 890 l0 -2530 -2190 0 -2190 0 0 2530 0 2530 2190 0 2190 0 0
-2530z m-105 -3260 c11 -12 19 -36 19 -57 0 -68 -80 -98 -129 -48 -30 30 -32
64 -4 99 26 33 86 37 114 6z m-1405 -339 c0 -346 1 -351 47 -351 28 0 33 -38
6 -46 -10 -3 -53 -19 -97 -35 -92 -35 -112 -29 -102 31 l5 35 -27 -31 c-37
-43 -61 -54 -124 -54 -165 0 -284 170 -248 355 22 113 89 192 187 221 66 19
124 6 171 -39 l32 -31 0 80 c0 85 -8 104 -47 104 -16 0 -23 6 -23 18 0 13 15
23 55 36 31 9 74 26 97 36 31 14 46 16 55 8 10 -8 13 -84 13 -337z m-784 108
c177 -75 214 -339 69 -485 -66 -66 -187 -93 -270 -61 l-30 12 0 92 c-1 87 9
114 17 48 9 -69 58 -125 111 -125 44 0 64 16 84 67 24 64 24 233 -1 317 -21
70 -70 126 -110 126 -30 0 -79 -44 -84 -75 -8 -44 -18 -32 -17 20 0 30 6 60
12 66 31 31 145 30 219 -2z m1317 -7 c62 -33 104 -96 113 -168 5 -42 3 -60
-10 -79 l-16 -25 -167 0 -166 0 6 -60 c13 -117 65 -180 149 -180 59 0 96 18
123 59 21 32 55 42 55 16 0 -26 -60 -83 -105 -101 -66 -25 -178 -16 -238 19
-90 53 -137 143 -137 263 0 222 206 357 393 256z m471 13 c29 -12 36 -12 52 0
37 28 54 19 54 -29 0 -24 3 -58 6 -75 6 -28 4 -31 -17 -31 -17 0 -30 11 -47
41 -38 66 -117 98 -172 69 -24 -13 -41 -65 -31 -93 13 -33 37 -51 132 -96 48
-24 103 -59 124 -81 33 -34 39 -47 43 -95 4 -47 1 -61 -22 -95 -28 -43 -79
-74 -139 -85 -27 -5 -57 -1 -108 15 -57 19 -75 21 -90 12 -30 -19 -49 -14 -49
11 0 12 -3 46 -6 75 -6 48 -5 52 14 52 13 0 27 -11 36 -27 45 -88 169 -131
221 -78 55 54 25 108 -94 169 -144 74 -183 117 -183 202 0 128 137 197 276
139z m427 -231 c-3 -225 -2 -252 13 -267 10 -9 26 -17 37 -17 12 0 19 -7 19
-20 0 -19 -7 -20 -145 -20 -138 0 -145 1 -145 20 0 14 7 20 24 20 44 0 47 15
44 226 l-3 199 -32 10 c-47 13 -44 41 5 50 20 3 62 17 92 30 101 45 96 58 91
-231z m559 231 c53 -27 60 -56 60 -242 0 -186 7 -216 53 -221 31 -4 38 -39 10
-48 -10 -3 -55 -19 -100 -36 -45 -17 -86 -27 -92 -24 -6 4 -11 33 -11 64 l0
57 -19 -31 c-44 -73 -120 -104 -205 -85 -66 15 -101 45 -116 100 -32 119 75
213 295 259 l40 8 -2 72 c-3 94 -13 112 -64 112 -49 0 -83 -30 -98 -86 -17
-63 -37 -84 -80 -84 -46 0 -61 14 -61 57 0 65 79 125 190 147 45 8 170 -3 200
-19z"/>
<path d="M3730 7473 l0 -102 33 -5 c230 -31 301 -54 341 -109 21 -28 21 -35
24 -1345 1 -724 0 -1331 -3 -1349 -8 -43 -54 -87 -112 -107 -40 -14 -218 -45
-260 -46 -10 0 -13 -27 -13 -102 l0 -103 1260 0 1260 0 5 30 c2 17 7 78 10
137 10 190 63 460 134 686 l29 92 -122 0 -121 0 -84 -177 c-149 -317 -215
-404 -346 -463 -121 -55 -183 -63 -512 -68 l-302 -4 -26 26 -25 25 2 1370 3
1370 21 28 c44 59 84 72 342 109 l32 5 0 102 0 102 -785 0 -785 0 0 -102z"/>
<path d="M5447 2378 c-105 -38 -101 -408 5 -482 28 -20 77 -20 104 -1 45 31
54 72 54 247 0 184 -3 194 -70 228 -43 22 -53 23 -93 8z"/>
<path d="M6111 2364 c-34 -28 -61 -102 -61 -166 l0 -38 111 0 112 0 -7 66 c-8
80 -26 126 -57 148 -33 23 -63 20 -98 -10z"/>
<path d="M7607 2155 c-86 -32 -128 -84 -129 -159 -2 -104 78 -136 145 -56 15
17 31 48 37 68 13 43 9 154 -5 158 -5 1 -27 -4 -48 -11z"/>
</g>
</svg>
